{
    "asset" : {
        "generator" : "Khronos glTF Blender I/O v3.2.43",
        "version" : "2.0"
    },
    "scene" : 0,
    "scenes" : [
        {
            "name" : "Scene",
            "nodes" : [
                14,
                15
            ]
        }
    ],
    "nodes" : [
        {
            "name" : "Node_6",
            "translation" : [
                0.00115966796875,
                0.001773834228515625,
                0.0005374387837946415
            ]
        },
        {
            "children" : [
                0
            ],
            "name" : "CINEMA_4D_Editor",
            "rotation" : [
                -0.00505369808524847,
                0.03399835154414177,
                -0.1469430923461914,
                0.988547682762146
            ],
            "translation" : [
                -10999.822265625,
                17459.126953125,
                3001.57373046875
            ]
        },
        {
            "mesh" : 0,
            "name" : "motor_1_Mat_0",
            "translation" : [
                -1.1288746463833377e-05,
                -6.539281457662582e-06,
                0
            ]
        },
        {
            "children" : [
                2
            ],
            "name" : "motor_1",
            "rotation" : [
                -0.5,
                -0.5,
                0.5,
                0.5
            ],
            "translation" : [
                -292.3855895996094,
                15274.83203125,
                -66.96337127685547
            ]
        },
        {
            "mesh" : 1,
            "name" : "motor_2_Mat_0",
            "scale" : [
                1.6029574871063232,
                1.5857717990875244,
                3.07222318649292
            ],
            "translation" : [
                -1.1288746463833377e-05,
                -6.539281457662582e-06,
                0
            ]
        },
        {
            "children" : [
                4
            ],
            "name" : "motor_2",
            "rotation" : [
                -0.5,
                -0.5,
                0.5,
                0.5
            ],
            "translation" : [
                -292.3855895996094,
                15274.83203125,
                -66.96337127685547
            ]
        },
        {
            "mesh" : 2,
            "name" : "Plane__0"
        },
        {
            "children" : [
                6
            ],
            "name" : "Plane"
        },
        {
            "mesh" : 3,
            "name" : "pole_Mat_0",
            "scale" : [
                1.1519807577133179,
                1,
                1.1463682651519775
            ],
            "translation" : [
                -1.1288746463833377e-05,
                -6.539281457662582e-06,
                0
            ]
        },
        {
            "children" : [
                8
            ],
            "name" : "pole",
            "rotation" : [
                -0.5,
                -0.5,
                0.5,
                0.5
            ],
            "translation" : [
                -292.3855895996094,
                15274.83203125,
                -66.96337127685547
            ]
        },
        {
            "children" : [
                1,
                3,
                5,
                7,
                9
            ],
            "name" : "RootNode"
        },
        {
            "children" : [
                10
            ],
            "name" : "Node_3"
        },
        {
            "children" : [
                11
            ],
            "name" : "3f676a283be34e44a4d4a27c32fac80a.fbx",
            "rotation" : [
                0.7071068286895752,
                0,
                0,
                0.7071067094802856
            ],
            "scale" : [
                0.009999999776482582,
                0.010000000707805157,
                0.010000000707805157
            ]
        },
        {
            "children" : [
                12
            ],
            "name" : "RootNode (model correction matrix)"
        },
        {
            "children" : [
                13
            ],
            "name" : "RootNode (gltf orientation matrix)",
            "rotation" : [
                -0.7071068286895752,
                0,
                0,
                0.7071068286895752
            ],
            "translation" : [
                0,
                22,
                0
            ]
        },
        {
            "mesh" : 4,
            "name" : "Cube",
            "translation" : [
                -2.137692451477051,
                2.4558234214782715,
                1.6239464282989502
            ]
        }
    ],
    "animations" : [
        {
            "channels" : [
                {
                    "sampler" : 0,
                    "target" : {
                        "node" : 5,
                        "path" : "rotation"
                    }
                }
            ],
            "name" : "CINEMA_4D_Main",
            "samplers" : [
                {
                    "input" : 19,
                    "interpolation" : "LINEAR",
                    "output" : 20
                }
            ]
        }
    ],
    "materials" : [
        {
            "doubleSided" : true,
            "name" : "material",
            "pbrMetallicRoughness" : {
                "baseColorTexture" : {
                    "index" : 0
                },
                "metallicFactor" : 0.25171494483947754,
                "roughnessFactor" : 0
            }
        },
        {
            "doubleSided" : true,
            "name" : "Plane__0",
            "pbrMetallicRoughness" : {
                "metallicFactor" : 0,
                "roughnessFactor" : 0.6000000238418579
            }
        }
    ],
    "meshes" : [
        {
            "name" : "motor_1_Mat_0",
            "primitives" : [
                {
                    "attributes" : {
                        "POSITION" : 0,
                        "NORMAL" : 1,
                        "TEXCOORD_0" : 2
                    },
                    "indices" : 3,
                    "material" : 0
                }
            ]
        },
        {
            "name" : "motor_2_Mat_0",
            "primitives" : [
                {
                    "attributes" : {
                        "POSITION" : 4,
                        "NORMAL" : 5,
                        "TEXCOORD_0" : 6
                    },
                    "indices" : 7,
                    "material" : 0
                }
            ]
        },
        {
            "name" : "Plane__0",
            "primitives" : [
                {
                    "attributes" : {
                        "POSITION" : 8,
                        "NORMAL" : 9
                    },
                    "indices" : 10,
                    "material" : 1
                }
            ]
        },
        {
            "name" : "pole_Mat_0",
            "primitives" : [
                {
                    "attributes" : {
                        "POSITION" : 11,
                        "NORMAL" : 12,
                        "TEXCOORD_0" : 13
                    },
                    "indices" : 14,
                    "material" : 0
                }
            ]
        },
        {
            "name" : "Cube.001",
            "primitives" : [
                {
                    "attributes" : {
                        "POSITION" : 15,
                        "NORMAL" : 16,
                        "TEXCOORD_0" : 17
                    },
                    "indices" : 18
                }
            ]
        }
    ],
    "textures" : [
        {
            "sampler" : 0,
            "source" : 0
        }
    ],
    "images" : [
        {
            "bufferView" : 4,
            "mimeType" : "image/png",
            "name" : "material_baseColor"
        }
    ],
    "accessors" : [
        {
            "bufferView" : 0,
            "componentType" : 5126,
            "count" : 483,
            "max" : [
                1149.4979248046875,
                1000,
                -13.4064359664917
            ],
            "min" : [
                -1212.0986328125,
                -1000,
                -2778.39990234375
            ],
            "type" : "VEC3"
        },
        {
            "bufferView" : 1,
            "componentType" : 5126,
            "count" : 483,
            "type" : "VEC3"
        },
        {
            "bufferView" : 2,
            "componentType" : 5126,
            "count" : 483,
            "type" : "VEC2"
        },
        {
            "bufferView" : 3,
            "componentType" : 5123,
            "count" : 1044,
            "type" : "SCALAR"
        },
        {
            "bufferView" : 5,
            "componentType" : 5126,
            "count" : 642,
            "max" : [
                4226.59228515625,
                5719.0400390625,
                1318.4964599609375
            ],
            "min" : [
                -5856.95703125,
                -4523.85693359375,
                -13.406452178955078
            ],
            "type" : "VEC3"
        },
        {
            "bufferView" : 6,
            "componentType" : 5126,
            "count" : 642,
            "type" : "VEC3"
        },
        {
            "bufferView" : 7,
            "componentType" : 5126,
            "count" : 642,
            "type" : "VEC2"
        },
        {
            "bufferView" : 8,
            "componentType" : 5123,
            "count" : 1233,
            "type" : "SCALAR"
        },
        {
            "bufferView" : 9,
            "componentType" : 5126,
            "count" : 441,
            "max" : [
                200,
                0,
                200
            ],
            "min" : [
                -200,
                0,
                -200
            ],
            "type" : "VEC3"
        },
        {
            "bufferView" : 10,
            "componentType" : 5126,
            "count" : 441,
            "type" : "VEC3"
        },
        {
            "bufferView" : 11,
            "componentType" : 5123,
            "count" : 2400,
            "type" : "SCALAR"
        },
        {
            "bufferView" : 12,
            "componentType" : 5126,
            "count" : 89,
            "max" : [
                -1212.0987548828125,
                915.6903076171875,
                373.2320861816406
            ],
            "min" : [
                -15274.83203125,
                -928.9876098632812,
                -1471.44580078125
            ],
            "type" : "VEC3"
        },
        {
            "bufferView" : 13,
            "componentType" : 5126,
            "count" : 89,
            "type" : "VEC3"
        },
        {
            "bufferView" : 14,
            "componentType" : 5126,
            "count" : 89,
            "type" : "VEC2"
        },
        {
            "bufferView" : 15,
            "componentType" : 5123,
            "count" : 258,
            "type" : "SCALAR"
        },
        {
            "bufferView" : 16,
            "componentType" : 5126,
            "count" : 24,
            "max" : [
                4.346972465515137,
                2.4558234214782715,
                2.059136152267456
            ],
            "min" : [
                -4.346972465515137,
                -2.4558234214782715,
                -2.059136152267456
            ],
            "type" : "VEC3"
        },
        {
            "bufferView" : 17,
            "componentType" : 5126,
            "count" : 24,
            "type" : "VEC3"
        },
        {
            "bufferView" : 18,
            "componentType" : 5126,
            "count" : 24,
            "type" : "VEC2"
        },
        {
            "bufferView" : 19,
            "componentType" : 5123,
            "count" : 36,
            "type" : "SCALAR"
        },
        {
            "bufferView" : 20,
            "componentType" : 5126,
            "count" : 81,
            "max" : [
                3.3333333333333335
            ],
            "min" : [
                0
            ],
            "type" : "SCALAR"
        },
        {
            "bufferView" : 21,
            "componentType" : 5126,
            "count" : 81,
            "type" : "VEC4"
        }
    ],
    "bufferViews" : [
        {
            "buffer" : 0,
            "byteLength" : 5796,
            "byteOffset" : 0
        },
        {
            "buffer" : 0,
            "byteLength" : 5796,
            "byteOffset" : 5796
        },
        {
            "buffer" : 0,
            "byteLength" : 3864,
            "byteOffset" : 11592
        },
        {
            "buffer" : 0,
            "byteLength" : 2088,
            "byteOffset" : 15456
        },
        {
            "buffer" : 0,
            "byteLength" : 74964,
            "byteOffset" : 17544
        },
        {
            "buffer" : 0,
            "byteLength" : 7704,
            "byteOffset" : 92508
        },
        {
            "buffer" : 0,
            "byteLength" : 7704,
            "byteOffset" : 100212
        },
        {
            "buffer" : 0,
            "byteLength" : 5136,
            "byteOffset" : 107916
        },
        {
            "buffer" : 0,
            "byteLength" : 2466,
            "byteOffset" : 113052
        },
        {
            "buffer" : 0,
            "byteLength" : 5292,
            "byteOffset" : 115520
        },
        {
            "buffer" : 0,
            "byteLength" : 5292,
            "byteOffset" : 120812
        },
        {
            "buffer" : 0,
            "byteLength" : 4800,
            "byteOffset" : 126104
        },
        {
            "buffer" : 0,
            "byteLength" : 1068,
            "byteOffset" : 130904
        },
        {
            "buffer" : 0,
            "byteLength" : 1068,
            "byteOffset" : 131972
        },
        {
            "buffer" : 0,
            "byteLength" : 712,
            "byteOffset" : 133040
        },
        {
            "buffer" : 0,
            "byteLength" : 516,
            "byteOffset" : 133752
        },
        {
            "buffer" : 0,
            "byteLength" : 288,
            "byteOffset" : 134268
        },
        {
            "buffer" : 0,
            "byteLength" : 288,
            "byteOffset" : 134556
        },
        {
            "buffer" : 0,
            "byteLength" : 192,
            "byteOffset" : 134844
        },
        {
            "buffer" : 0,
            "byteLength" : 72,
            "byteOffset" : 135036
        },
        {
            "buffer" : 0,
            "byteLength" : 324,
            "byteOffset" : 135108
        },
        {
            "buffer" : 0,
            "byteLength" : 1296,
            "byteOffset" : 135432
        }
    ],
    "samplers" : [
        {
            "magFilter" : 9729,
            "minFilter" : 9987
        }
    ],
    "buffers" : [
        {
            "byteLength" : 136728,
            "uri" : "data:application/octet-stream;base64,"
        }
    ]
}
